<?xml version="1.0" standalone="no"?>
<!DOCTYPE svg PUBLIC "-//W3C//DTD SVG 20010904//EN"
 "http://www.w3.org/TR/2001/REC-SVG-20010904/DTD/svg10.dtd">
<svg version="1.0" xmlns="http://www.w3.org/2000/svg"
 width="8115.000000pt" height="4454.000000pt" viewBox="0 0 8115.000000 4454.000000"
 preserveAspectRatio="xMidYMid meet">

<g transform="translate(0.000000,4454.000000) scale(0.100000,-0.100000)"
fill="#000000" stroke="none">
<path d="M67325 28931 c-22 -10 -94 -51 -159 -90 -66 -39 -125 -71 -132 -71
-6 0 5 31 27 73 21 39 39 78 39 85 0 33 -125 -31 -262 -133 -61 -46 -135 -95
-165 -110 -54 -26 -56 -26 -96 -10 -29 11 -55 15 -84 10 -40 -6 -44 -4 -53 21
-7 18 -16 25 -28 22 -9 -3 -115 -33 -234 -68 -167 -49 -218 -68 -218 -80 0
-15 -39 -140 -44 -140 -1 0 -80 -9 -176 -19 -96 -11 -214 -23 -262 -26 l-86
-7 14 -34 c18 -43 18 -84 -1 -111 -9 -12 -60 -51 -113 -87 -116 -76 -152 -114
-152 -161 0 -38 12 -32 -138 -70 -88 -22 -161 -52 -200 -82 -18 -14 -32 -27
-30 -28 2 -2 44 5 93 16 49 10 91 19 92 19 2 0 -12 -21 -32 -46 -39 -52 -46
-98 -20 -138 14 -22 13 -25 -26 -70 -23 -26 -58 -55 -79 -66 -69 -35 -334
-137 -465 -179 -121 -39 -135 -42 -203 -35 -41 3 -70 10 -65 14 4 4 85 28 178
55 186 52 219 65 235 95 11 21 3 97 -12 106 -5 3 -34 -13 -64 -36 -30 -23 -61
-40 -67 -37 -7 3 -46 52 -87 110 -74 104 -76 106 -110 101 -19 -2 -136 -11
-260 -19 -124 -9 -268 -22 -320 -30 -52 -8 -140 -21 -195 -30 -117 -18 -214
-19 -283 -4 -43 9 -61 7 -136 -15 -63 -18 -100 -23 -135 -19 -102 12 -226 -25
-334 -99 l-60 -40 -251 3 -251 4 -45 -31 c-80 -55 -125 -73 -216 -84 -110 -14
-195 -31 -394 -80 -157 -38 -194 -45 -445 -80 -463 -64 -988 -71 -1375 -19
-41 5 -85 12 -97 14 -20 5 -21 3 -12 -25 16 -46 100 -114 182 -148 146 -61
325 -77 512 -47 245 39 432 43 404 9 -41 -50 -152 -87 -386 -129 -160 -29
-280 -64 -324 -95 -15 -11 -42 -20 -61 -20 -37 0 -392 39 -595 66 l-133 18 0
48 c0 41 -3 48 -22 53 -13 3 -77 18 -143 34 l-120 28 -16 -27 c-20 -32 -65
-52 -190 -81 -52 -12 -102 -26 -111 -31 -24 -12 -23 -40 3 -90 14 -28 17 -43
10 -48 -6 -3 -48 -17 -94 -30 -45 -12 -86 -26 -90 -30 -5 -4 29 -10 75 -14
137 -12 212 -32 296 -78 l77 -43 854 -5 853 -5 -228 -258 c-126 -142 -230
-262 -231 -265 -2 -4 12 -16 30 -27 l32 -19 -62 -9 -61 -10 -479 -540 c-263
-297 -491 -555 -507 -574 l-29 -35 134 6 c647 30 802 38 994 51 121 8 230 15
242 15 18 0 23 9 33 58 70 349 189 635 367 885 75 105 264 296 377 379 333
247 761 392 1305 439 180 16 697 6 851 -15 400 -57 766 -185 1028 -359 l82
-55 118 60 c113 57 120 59 194 59 42 0 112 -3 156 -6 89 -8 98 -5 217 75 39
27 99 60 135 75 118 49 199 97 240 141 l40 43 155 27 155 27 0 88 c0 98 4 92
-83 105 -26 3 -49 10 -52 14 -7 12 82 81 124 96 21 8 83 13 152 14 l116 0 108
81 c122 91 199 132 411 219 204 85 221 94 243 139 38 73 45 124 26 180 -20 61
-12 80 47 111 125 65 269 193 430 384 119 140 275 304 322 339 33 23 32 20
-32 -73 -25 -36 -54 -85 -65 -109 -19 -43 -28 -134 -14 -148 21 -20 189 92
289 194 127 128 174 196 194 278 20 84 26 97 75 155 41 48 67 127 52 154 -15
27 -91 -30 -178 -133 -72 -84 -141 -148 -150 -139 -3 2 25 52 60 111 35 59 60
107 56 107 -27 0 -173 -113 -267 -206 -228 -227 -626 -568 -836 -716 -101 -72
-301 -199 -305 -194 -2 2 4 22 12 46 8 23 15 51 15 62 0 11 -29 50 -65 88 -56
57 -63 69 -48 75 70 28 237 85 239 82 2 -2 7 -38 10 -81 4 -42 10 -78 13 -81
9 -5 197 122 278 188 162 132 526 538 571 636 26 56 45 211 26 211 -5 0 -27
-9 -49 -19z m-625 -452 c0 -18 -121 -139 -187 -186 -34 -24 -93 -61 -130 -81
-79 -44 -96 -69 -88 -133 l5 -46 -77 -7 c-43 -3 -134 -9 -203 -12 l-125 -7
198 133 c109 72 217 149 239 171 l41 39 -7 70 -6 70 170 0 c116 0 170 -3 170
-11z m-2706 -1061 c10 -29 21 -59 23 -65 4 -9 -7 -13 -37 -13 -50 0 -132 -20
-219 -55 -36 -14 -66 -23 -68 -22 -1 2 9 19 23 38 l25 34 -62 57 -63 56 55 6
c70 8 135 12 229 14 l75 2 19 -52z"/>
<path d="M41435 28159 c-77 -4 -495 -12 -930 -18 -970 -12 -1343 -28 -1855
-81 -231 -24 -622 -79 -632 -89 -4 -3 90 -26 210 -49 1529 -303 3181 -752
5392 -1467 382 -124 2346 -773 2395 -791 9 -4 14 13 19 56 10 83 39 193 75
285 89 222 264 387 486 458 129 42 208 47 716 47 l489 0 0 -630 0 -630 28 0
c15 0 140 -9 277 -20 138 -11 255 -20 261 -20 9 0 13 70 16 248 4 212 8 258
26 326 81 296 257 519 507 641 166 81 157 80 698 80 l479 0 393 -735 c217
-404 396 -739 398 -745 3 -7 927 -82 1050 -84 l27 -1 0 785 0 785 880 0 880 0
0 -838 0 -839 288 -11 c158 -7 317 -15 354 -18 l67 -6 4 459 c4 520 5 526 92
710 102 216 247 368 440 459 169 80 147 77 728 81 l517 4 0 -881 0 -880 120
-2 c66 -1 133 -2 150 -2 27 -1 82 61 655 732 344 403 625 735 625 737 0 3 -13
5 -30 5 -45 0 -36 15 24 41 l53 24 -80 44 -80 44 37 22 37 22 -77 37 c-42 20
-75 38 -73 41 7 6 170 -31 267 -61 l84 -25 29 27 28 27 -136 63 c-75 35 -138
66 -141 69 -9 9 23 6 99 -10 115 -24 212 -34 232 -23 21 11 22 34 2 81 l-14
35 -83 -19 c-46 -10 -91 -19 -100 -19 -10 0 -46 25 -80 57 -192 172 -363 254
-503 239 -33 -3 -107 -21 -164 -38 -119 -37 -107 -38 -333 42 l-117 41 -448 3
c-446 4 -575 10 -1084 56 -275 25 -502 37 -911 50 -424 13 -465 9 -866 -84
-84 -20 -163 -36 -175 -36 -15 0 1 -16 56 -52 42 -28 76 -53 74 -55 -2 -2 -45
3 -96 10 -86 13 -93 16 -129 54 l-37 40 -135 17 c-237 30 -355 48 -370 56 -10
6 -1 11 30 20 25 6 88 24 140 39 l95 29 -54 16 c-99 29 -212 45 -571 81 -195
19 -515 55 -710 81 -628 80 -748 92 -1445 144 -225 17 -554 44 -730 60 -176
16 -486 41 -690 55 -1034 72 -1212 87 -1720 145 -444 51 -606 67 -855 85 -256
18 -256 18 -655 66 -457 54 -618 67 -882 74 -282 8 -425 20 -527 46 -43 11
-99 25 -125 30 -25 6 -199 14 -386 19 -335 8 -342 9 -510 44 -254 54 -268 54
-410 16 l-120 -32 -195 17 c-254 22 -309 30 -406 59 -100 30 -178 36 -359 25z"/>
<path d="M36207 27272 c-61 -64 -123 -89 -374 -152 -281 -70 -407 -112 -553
-182 -58 -28 -181 -84 -274 -124 -93 -41 -197 -91 -230 -112 -60 -37 -62 -37
-124 -29 l-64 8 -66 -48 c-107 -76 -201 -161 -247 -224 -41 -56 -83 -154 -72
-166 3 -3 86 26 184 65 242 95 235 94 212 49 -41 -77 -149 -172 -290 -254
l-77 -45 45 -79 c25 -44 43 -82 41 -84 -1 -2 -37 8 -78 21 -41 13 -82 24 -91
24 -8 0 -34 -29 -56 -65 l-42 -64 67 -3 66 -3 -124 -81 c-69 -45 -210 -130
-314 -190 l-188 -109 96 -90 c53 -50 96 -94 96 -97 0 -4 -71 -42 -157 -85
l-158 -78 65 -3 c79 -4 131 8 235 55 75 34 87 37 209 41 l128 5 -7 -24 c-12
-44 -15 -54 -24 -101 l-8 -47 26 18 c14 11 46 40 71 65 24 25 49 46 55 46 6 0
22 -11 35 -25 l24 -25 -22 -30 c-13 -17 -18 -30 -12 -30 5 0 83 7 172 15 801
71 1727 49 2763 -66 934 -104 1978 -285 3175 -550 428 -95 609 -138 645 -154
38 -16 174 -49 180 -43 3 2 -38 14 -90 27 l-95 23 0 656 c0 712 4 776 55 927
29 86 83 199 128 265 40 59 173 196 216 222 l34 21 -84 24 c-172 47 -884 224
-1154 287 -1331 308 -2567 512 -3708 611 -225 19 -209 20 -240 -13z"/>
<path d="M11518 27110 c-236 -40 -442 -186 -571 -405 -20 -33 -51 -103 -69
-155 l-33 -95 -3 -357 -3 -358 1135 0 1136 0 0 -3150 0 -3150 795 0 795 0 0
3150 0 3150 1138 2 1137 3 0 685 0 685 -2705 1 c-1488 1 -2726 -2 -2752 -6z"/>
<path d="M19290 27109 c-141 -18 -280 -78 -386 -165 -57 -46 -130 -145 -170
-229 -30 -63 -2614 -7247 -2614 -7267 0 -4 381 -7 847 -6 l847 3 77 235 c42
129 156 481 254 783 l178 547 1486 0 1486 0 255 -785 255 -785 837 0 c461 0
838 1 838 3 0 1 -623 1728 -1383 3837 l-1383 3835 -679 1 c-374 1 -709 -2
-745 -7z m1030 -3174 c288 -880 525 -1606 528 -1612 3 -10 -210 -13 -1047 -13
-699 0 -1051 3 -1051 10 0 11 1029 3200 1037 3213 3 5 6 7 8 5 2 -2 238 -723
525 -1603z"/>
<path d="M24123 27107 c3 -7 545 -852 1206 -1876 l1200 -1863 -63 -101 c-511
-828 -2346 -3817 -2346 -3821 0 -3 411 -6 914 -6 l913 0 779 1325 c428 729
781 1325 784 1325 3 -1 357 -596 787 -1323 l781 -1322 921 -3 c507 -1 921 0
921 3 0 3 -542 888 -1205 1965 l-1204 1959 1201 1863 c660 1025 1203 1869
1205 1876 5 11 -133 12 -758 10 -753 -4 -765 -4 -844 -26 -141 -39 -219 -84
-320 -187 l-90 -91 -695 -1188 c-382 -653 -697 -1189 -700 -1191 -3 -2 -356
602 -785 1341 l-779 1344 -914 0 c-753 0 -913 -2 -909 -13z"/>
<path d="M32213 27109 c-317 -41 -525 -214 -602 -499 -11 -41 -25 -113 -31
-160 -7 -57 -10 -1220 -10 -3547 l0 -3463 795 0 795 0 -2 3838 -3 3837 -440 1
c-242 1 -468 -2 -502 -7z"/>
<path d="M62290 26310 c-1115 -87 -1706 -612 -1846 -1640 -12 -83 -18 -197
-18 -340 -1 -186 2 -230 22 -327 62 -309 191 -550 412 -774 173 -175 356 -301
632 -434 215 -103 362 -155 853 -300 572 -169 923 -279 1018 -320 302 -130
431 -331 414 -645 -8 -125 -27 -212 -67 -294 -126 -261 -411 -399 -881 -425
-174 -10 -385 0 -517 24 -482 90 -752 384 -813 884 l-12 101 -578 0 -578 0 4
-32 c2 -18 7 -82 10 -141 6 -132 28 -284 61 -435 151 -680 561 -1135 1220
-1351 610 -201 1509 -199 2124 5 772 256 1186 856 1217 1764 14 426 -67 761
-253 1041 -110 166 -324 346 -528 444 -259 124 -983 364 -1521 505 -583 152
-900 336 -1040 601 -66 127 -81 266 -46 437 30 141 86 249 180 343 122 122
273 190 496 224 149 23 459 16 585 -13 338 -79 550 -239 705 -534 94 -177 206
-284 348 -331 58 -20 88 -21 451 -25 l388 -3 -7 93 c-37 500 -172 908 -404
1215 -84 111 -251 268 -367 346 -257 171 -568 277 -950 322 -156 19 -555 27
-714 15z"/>
<path d="M41700 26187 c-213 -73 -374 -264 -425 -506 -13 -64 -15 -424 -15
-2972 l0 -2899 2000 0 2000 0 0 590 0 590 -1405 0 -1405 0 0 2610 0 2610 -342
0 c-328 -1 -346 -1 -408 -23z"/>
<path d="M46770 26203 c-61 -10 -155 -48 -210 -84 -102 -69 -168 -170 -213
-327 l-22 -77 -3 -2952 -2 -2953 595 0 595 0 0 3200 0 3200 -357 -1 c-197 -1
-369 -4 -383 -6z"/>
<path d="M49108 26186 c-195 -69 -337 -231 -410 -466 l-23 -75 -3 -2917 -2
-2918 590 0 590 0 2 2180 3 2179 1165 -2179 1165 -2180 623 0 622 0 0 3200 0
3200 -590 0 -590 0 -2 -2180 -3 -2180 -1165 2180 -1165 2179 -370 0 c-364 1
-371 0 -437 -23z"/>
<path d="M55164 26190 c-219 -70 -397 -301 -434 -566 -7 -51 -10 -997 -10
-2945 l0 -2869 595 0 595 0 0 1143 c0 1256 -1 1221 61 1338 42 79 114 143 219
193 79 38 91 41 171 41 81 0 90 -2 175 -44 76 -38 104 -59 194 -150 58 -58
133 -145 166 -192 33 -48 387 -591 785 -1208 l724 -1121 723 0 c397 0 722 3
722 6 0 3 -558 853 -1240 1889 -682 1036 -1243 1890 -1246 1898 -4 10 376 446
1140 1309 l1145 1293 -746 3 c-474 1 -750 -1 -758 -8 -6 -5 -511 -594 -1121
-1309 l-1109 -1300 -3 1309 -2 1310 -343 -1 c-309 0 -348 -2 -403 -19z"/>
<path d="M65525 26118 c-203 -155 -207 -161 -158 -249 14 -27 24 -51 22 -53
-16 -15 -131 -83 -189 -112 -83 -41 -214 -61 -325 -49 l-66 7 88 60 c48 33 92
63 96 67 5 5 -54 -7 -130 -25 -76 -19 -162 -34 -190 -34 -29 0 -53 -2 -53 -5
0 -3 18 -34 39 -68 21 -34 56 -96 77 -138 l39 -76 288 58 c158 32 406 83 550
114 254 55 263 58 307 95 25 21 54 48 65 61 17 19 18 22 3 16 -41 -15 -353
-78 -372 -75 -25 4 46 46 166 99 43 19 78 36 78 39 0 3 -31 22 -69 44 -38 21
-82 49 -97 62 l-29 24 69 65 c38 36 67 67 65 69 -2 2 -42 16 -89 31 -47 15
-89 29 -95 31 -5 2 -46 -24 -90 -58z"/>
<path d="M64400 26110 c-46 -16 -86 -30 -89 -30 -3 0 19 -24 48 -54 45 -45 59
-54 80 -50 20 4 38 -4 76 -34 l50 -40 88 36 c48 19 87 38 87 42 0 3 -28 19
-62 35 -46 22 -71 42 -94 75 -39 58 -69 61 -184 20z"/>
<path d="M42740 24902 l0 -1078 376 -99 c206 -54 377 -102 379 -105 2 -4 -28
-17 -68 -29 -40 -12 -210 -68 -379 -124 l-308 -102 0 -1037 0 -1038 113 0 112
0 100 80 c538 432 1438 856 2555 1204 151 47 303 93 337 103 l63 18 0 1121 0
1120 -792 262 c-814 268 -1108 363 -1613 521 -360 112 -854 261 -866 261 -5 0
-9 -459 -9 -1078z"/>
<path d="M66377 25845 c-64 -13 -266 -100 -255 -110 3 -3 52 6 109 19 57 14
106 22 109 20 11 -11 -100 -80 -312 -193 -64 -35 -119 -69 -122 -77 -7 -19 6
-18 89 6 81 23 99 25 89 8 -11 -17 80 37 156 93 96 70 220 207 220 241 0 9 3
10 -83 -7z"/>
<path d="M67070 24699 c-454 -106 -1268 -274 -1800 -372 l-235 -43 4 -127 3
-128 -573 3 c-563 4 -575 4 -648 26 l-74 23 -191 -26 c-267 -36 -846 -105
-878 -105 -60 0 -31 -19 70 -45 538 -139 1287 -390 1567 -525 127 -61 269
-151 346 -218 l46 -41 304 44 c754 108 2033 335 2011 357 -4 4 -61 9 -126 10
l-119 3 169 84 c93 45 207 99 253 118 111 46 126 56 149 106 11 23 19 43 18
44 -2 2 -76 -22 -165 -52 -174 -59 -280 -89 -288 -82 -9 10 109 68 275 136 96
39 186 78 201 85 25 13 31 12 74 -15 44 -27 50 -28 95 -19 52 12 104 43 166
100 22 21 56 47 74 58 l33 19 -27 6 c-17 3 -67 -10 -137 -34 -60 -22 -112 -38
-114 -36 -10 11 58 74 185 170 75 58 151 120 167 137 l30 32 -55 -22 c-161
-63 -278 -117 -605 -281 -411 -205 -474 -227 -665 -236 l-115 -5 47 35 c108
85 274 181 648 379 364 193 567 317 675 412 l40 35 -65 -15 c-106 -24 -221
-61 -388 -126 -263 -101 -502 -177 -502 -159 0 4 13 22 30 41 16 19 29 38 30
42 0 6 -79 -13 -163 -38 -15 -5 -18 -1 -15 16 2 18 41 43 177 117 171 92 269
154 240 152 -7 -1 -88 -19 -179 -40z"/>
<path d="M47800 23750 l0 -592 23 6 c82 22 192 26 370 13 l187 -12 0 541 0
541 -102 7 c-170 11 -263 25 -355 52 -49 15 -96 29 -105 31 -17 5 -18 -28 -18
-587z"/>
<path d="M35007 24321 l-197 -6 -75 -120 c-148 -238 -282 -533 -309 -682 -6
-37 -4 -38 63 -22 24 5 46 7 49 5 2 -3 -30 -78 -72 -167 -85 -177 -106 -227
-130 -308 -12 -42 -13 -51 -2 -42 8 7 93 112 189 234 116 147 217 263 298 342
212 206 498 461 549 489 90 49 187 67 384 73 l180 6 -57 -73 c-31 -41 -57 -77
-57 -80 0 -4 32 -16 70 -26 l70 -18 -31 -32 c-77 -79 -266 -142 -492 -163 -98
-10 -105 -12 -140 -45 -20 -19 -88 -62 -151 -96 -110 -60 -188 -120 -155 -120
8 0 80 12 159 26 268 47 533 124 668 193 23 12 44 21 48 21 11 0 -7 -93 -26
-130 -25 -48 -52 -71 -145 -121 -112 -59 -185 -110 -259 -179 -66 -62 -141
-161 -135 -178 4 -9 54 11 325 132 78 34 110 41 344 76 41 6 140 33 220 60 80
27 154 50 166 52 21 3 74 -26 74 -42 0 -27 -212 -122 -465 -209 -98 -34 -194
-71 -211 -82 -18 -11 -69 -53 -115 -94 -71 -65 -92 -78 -163 -101 -326 -107
-597 -241 -799 -392 -87 -65 -88 -67 -60 -74 33 -9 146 5 218 26 27 9 51 14
52 12 2 -2 -40 -41 -93 -87 -53 -46 -91 -85 -85 -87 7 -2 70 6 141 18 122 22
131 22 170 6 66 -26 146 -30 235 -12 159 33 204 73 258 228 38 111 41 108 -54
65 l-57 -26 -6 31 c-3 18 -3 35 1 39 5 4 46 21 92 38 146 53 195 90 225 173
28 77 86 116 304 207 130 54 142 57 142 39 0 -50 -63 -112 -196 -191 -78 -47
-93 -77 -70 -143 22 -66 20 -101 -9 -136 -32 -38 -32 -56 5 -106 17 -23 30
-44 30 -46 0 -3 -47 -41 -105 -86 -61 -47 -116 -98 -132 -123 -146 -230 -216
-308 -347 -392 -151 -96 -198 -153 -212 -255 l-7 -53 39 7 c68 13 146 50 262
125 120 77 159 96 234 116 60 16 59 14 -43 -98 -126 -138 -169 -209 -169 -281
0 -61 11 -60 106 14 221 171 324 231 457 266 67 18 67 18 88 -3 12 -11 19 -25
16 -30 -4 -6 -54 -31 -111 -58 -58 -26 -103 -51 -101 -55 3 -4 59 -27 126 -51
l120 -44 -38 -29 c-21 -16 -77 -68 -124 -116 -114 -115 -169 -220 -177 -336
l-5 -77 94 80 c52 43 149 123 216 176 l122 96 32 -64 c17 -36 33 -65 35 -65
15 0 72 30 158 85 78 49 113 65 140 65 20 0 36 -3 36 -8 0 -4 -37 -36 -81 -72
-114 -91 -179 -166 -234 -271 -53 -99 -95 -142 -152 -158 -21 -6 -98 -11 -170
-11 -73 0 -133 -2 -133 -5 0 -10 90 -132 115 -155 24 -23 37 -25 133 -30 l107
-5 3 -29 c7 -55 -8 -91 -100 -251 -79 -139 -264 -506 -326 -647 l-20 -47 31
-24 c97 -73 105 -70 176 71 98 190 202 299 367 384 l81 42 85 -47 c47 -26 88
-47 90 -47 1 0 3 71 4 158 0 144 2 161 23 202 38 72 110 146 224 227 l43 32
-17 -52 c-23 -66 -24 -176 -3 -248 9 -30 18 -57 21 -62 2 -4 21 15 42 41 51
64 114 117 165 138 35 15 45 26 70 80 88 194 307 535 488 760 661 826 1628
1513 3038 2159 214 98 266 125 268 142 2 14 -3 23 -15 27 -44 14 -1252 252
-1573 310 -1329 241 -2383 372 -3345 415 -296 14 -786 19 -1028 12z m1768
-3303 c32 -5 73 -17 89 -25 27 -14 28 -17 13 -28 -20 -15 -477 -145 -509 -145
-21 0 -58 26 -58 41 0 4 52 46 116 94 l117 86 86 -6 c47 -4 113 -11 146 -17z"/>
<path d="M34038 24243 c-20 -3 -37 -21 -70 -71 -44 -67 -203 -236 -313 -330
l-60 -52 53 20 c104 40 176 85 261 165 75 71 181 225 181 265 0 10 -3 10 -52
3z"/>
<path d="M51432 24001 c2 -5 120 -227 263 -494 l260 -486 3 471 c1 259 0 473
-2 476 -4 4 -452 40 -509 42 -10 0 -17 -4 -15 -9z"/>
<path d="M53720 23352 l0 -499 303 -12 c166 -6 326 -14 355 -17 l52 -5 0 495
c0 273 -1 496 -2 497 -7 2 -628 38 -665 38 l-43 1 0 -498z"/>
<path d="M60000 23749 c-420 -20 -848 -30 -1480 -36 l-685 -6 -45 -50 c-25
-27 -48 -56 -53 -63 -4 -8 95 -167 272 -436 l279 -423 484 3 c692 4 1698 29
2027 50 l103 7 -83 66 c-114 91 -290 275 -371 389 -78 110 -175 298 -218 420
-21 63 -34 85 -47 86 -10 1 -92 -2 -183 -7z"/>
<path d="M69430 22740 c-184 -53 -831 -217 -1125 -284 -860 -197 -1767 -364
-2680 -492 -176 -24 -330 -47 -343 -50 -23 -5 -23 -5 -17 -117 13 -203 -24
-536 -85 -777 -99 -393 -287 -725 -554 -977 -378 -358 -904 -558 -1609 -614
-195 -15 -676 -7 -857 15 -707 87 -1244 345 -1599 771 -256 308 -427 719 -487
1172 -9 65 -18 129 -20 142 l-5 24 -121 -6 c-67 -4 -285 -7 -486 -7 -289 0
-363 -3 -359 -13 2 -7 300 -461 661 -1009 361 -549 656 -1000 656 -1003 0 -3
-485 -4 -1077 -3 l-1078 3 -660 1022 c-363 562 -662 1024 -665 1026 -3 3 -164
8 -357 12 l-353 7 -2 -1034 -3 -1033 -887 -3 -888 -2 0 1073 0 1074 -267 12
c-148 6 -307 14 -355 18 l-88 6 0 -1092 0 -1091 -854 0 -854 0 -621 1163
c-342 639 -625 1168 -630 1175 -7 11 -197 27 -618 52 -2 0 -3 -538 -3 -1195
l0 -1195 -880 0 -880 0 0 1215 c0 668 -3 1215 -7 1215 -5 0 -134 -31 -288 -68
l-280 -68 -3 -1147 -2 -1147 -888 2 -887 3 -3 892 -2 892 -168 -59 c-92 -32
-195 -69 -229 -81 l-63 -23 0 -813 0 -813 -1232 0 -1233 0 -47 -83 c-77 -137
-156 -312 -146 -323 2 -1 55 13 118 32 168 52 454 120 620 148 243 41 402 56
700 66 157 5 341 15 410 21 167 16 521 13 875 -6 l290 -15 150 26 c129 23 188
27 415 31 366 7 896 -16 1430 -62 292 -25 588 -43 1200 -75 678 -35 940 -51
1355 -85 408 -33 918 -69 1410 -100 468 -29 736 -50 1365 -105 1023 -90 1535
-120 2090 -120 256 0 385 -8 794 -45 148 -14 271 -23 273 -21 2 2 -28 16 -68
32 -39 15 -66 30 -60 32 19 6 264 -17 562 -53 394 -49 452 -52 485 -30 19 12
60 20 143 26 139 10 201 19 201 28 0 4 -45 21 -100 40 -55 18 -100 35 -100 38
0 8 159 -5 450 -38 166 -19 362 -33 525 -39 338 -12 347 -14 500 -70 123 -45
137 -48 255 -53 92 -4 177 -16 320 -46 169 -36 778 -137 1297 -216 98 -15 205
-25 272 -25 l111 0 0 39 c0 58 11 63 166 81 71 8 109 19 175 49 110 52 219 79
355 91 114 9 172 6 437 -26 141 -16 164 -16 450 0 166 9 395 16 508 16 l207 0
67 -40 c67 -38 69 -39 104 -24 75 32 180 45 411 54 212 7 251 11 400 43 201
43 211 44 480 57 331 16 702 54 1290 131 219 29 395 64 437 88 12 6 -142 8
-467 5 l-485 -6 60 36 60 35 -115 1 c-136 0 -312 15 -392 34 l-58 13 0 -77 0
-77 -142 -6 c-215 -10 -502 -8 -598 4 -47 6 -182 12 -300 14 l-215 3 -19 81
c-11 44 -18 82 -15 85 2 2 162 11 354 20 498 23 1474 76 1515 82 l35 6 -44 26
-44 26 39 17 c53 24 60 23 116 -11 26 -16 50 -30 53 -30 2 0 20 27 41 60 20
33 39 60 41 60 10 0 501 101 556 114 l59 14 31 -45 c90 -129 75 -117 211 -163
70 -23 194 -59 277 -80 l152 -38 -49 -28 c-27 -15 -66 -37 -87 -49 l-38 -22
43 -6 c23 -3 74 1 113 9 125 26 414 107 410 114 -3 4 -25 11 -50 14 -25 4 -45
12 -45 17 0 6 21 31 48 57 56 56 163 111 288 147 90 26 314 69 321 61 6 -6
-60 -44 -226 -131 -127 -67 -136 -74 -139 -104 -2 -17 -1 -31 2 -31 28 0 431
54 494 67 81 16 84 17 162 89 44 41 83 74 86 74 3 0 25 -13 49 -30 24 -16 54
-30 66 -30 12 0 95 16 183 36 300 67 502 147 607 242 65 58 56 67 -64 67 -84
0 -97 -3 -152 -31 -81 -43 -203 -80 -338 -104 -132 -23 -280 -39 -270 -29 5 4
43 30 87 58 99 64 186 93 288 94 l78 1 -16 24 c-9 13 -12 28 -7 32 4 4 107 42
228 85 297 104 597 223 730 290 130 65 111 66 -108 3 -259 -73 -298 -79 -559
-85 -130 -3 -244 -3 -253 1 -14 5 -13 11 6 48 49 97 123 182 211 240 42 29 45
29 133 23 l90 -7 165 74 c206 92 437 227 390 228 -22 0 -211 -47 -310 -77 -47
-14 -164 -55 -260 -90 -366 -136 -415 -153 -533 -187 -103 -30 -301 -76 -327
-76 -12 0 80 182 99 197 9 7 41 25 71 39 173 83 203 99 220 122 11 14 20 40
20 59 0 65 24 94 133 165 100 66 197 151 185 164 -4 3 -70 -21 -147 -54 -148
-63 -151 -63 -151 -6 0 19 -4 24 -17 21 -10 -3 -66 -19 -124 -37 -83 -24 -114
-29 -140 -23 -18 5 -34 13 -36 19 -2 5 61 48 139 96 l142 86 48 -19 c58 -22
46 -27 198 81 143 102 151 106 285 150 91 31 111 41 113 58 3 21 0 22 -93 22
-145 0 -238 -29 -401 -125 -190 -113 -366 -185 -536 -219 -107 -22 -304 -38
-358 -28 l-45 8 -24 86 -24 87 -101 -6 c-127 -7 -120 6 22 42 56 14 127 35
157 46 49 18 55 24 55 48 0 35 39 76 79 84 36 7 94 -8 112 -29 17 -21 -5 -38
-79 -61 -38 -12 -57 -24 -63 -40 -13 -35 -23 -153 -13 -153 15 0 148 38 314
90 85 26 209 60 275 75 66 16 140 37 164 47 46 19 140 84 201 139 32 28 33 30
10 24 -29 -8 -128 -47 -255 -100 -94 -40 -215 -59 -229 -37 -9 15 32 35 175
87 65 23 135 55 155 71 62 49 86 63 179 99 116 45 149 66 178 112 34 53 86 98
221 189 64 43 112 80 107 82 -16 5 -172 -39 -216 -61 -22 -11 -62 -38 -90 -61
-79 -67 -107 -83 -168 -101 -107 -31 -106 -23 6 112 l102 123 80 0 80 0 -65
65 -66 65 -72 -16 c-40 -9 -76 -14 -79 -10 -3 3 22 35 55 71 68 72 81 103 63
149 -13 34 -20 24 96 126 l51 45 -65 90 c-35 50 -68 92 -74 93 -11 4 -215
-111 -309 -175 l-65 -44 108 7 c59 4 107 4 107 0 0 -14 -278 -189 -509 -321
-177 -101 -242 -143 -246 -159 -2 -11 -6 -45 -8 -74 -6 -83 -51 -116 -198
-147 -141 -30 -529 -41 -529 -15 0 11 63 67 107 94 59 36 171 80 289 111 127
34 162 56 221 135 26 35 63 73 81 83 18 11 75 26 127 33 52 8 107 19 121 24
15 6 61 43 103 84 115 110 254 232 371 325 135 108 139 111 120 110 -8 0 -76
-18 -150 -39z"/>
<path d="M40775 22519 c-532 -285 -952 -561 -1330 -874 -173 -144 -546 -519
-671 -675 -295 -370 -489 -709 -619 -1082 -19 -55 -35 -102 -35 -104 0 -2 50
14 112 36 61 22 113 40 115 40 2 0 3 -51 3 -114 l0 -113 113 38 c61 21 129 41
150 45 l37 6 0 -47 c0 -25 -5 -55 -10 -65 -6 -11 -51 -47 -100 -81 -87 -59
-140 -109 -140 -131 0 -21 216 22 468 93 296 83 475 119 597 119 l50 0 -46
-43 c-26 -23 -81 -73 -124 -112 -84 -75 -130 -149 -104 -166 8 -5 29 -19 47
-30 61 -39 98 -130 72 -179 -9 -17 -2 -20 70 -36 44 -9 80 -20 80 -23 0 -3
-46 -28 -103 -54 l-102 -48 93 -50 93 -50 -68 -64 c-37 -34 -65 -66 -62 -69 3
-4 69 19 145 50 226 92 286 115 292 110 4 -5 -9 -24 -73 -103 l-26 -33 66 0
c97 0 175 -38 175 -85 0 -40 -93 -108 -300 -220 -187 -101 -279 -166 -364
-256 -82 -87 -105 -119 -85 -119 24 0 246 40 304 55 68 18 116 41 231 111 44
28 116 63 160 78 119 43 321 143 493 247 109 64 167 93 196 97 28 3 76 -6 149
-27 60 -17 125 -31 145 -31 63 0 137 25 204 68 l64 42 170 -79 170 -78 91 52
92 52 4 174 c7 242 44 458 111 636 14 36 25 69 25 74 0 5 -185 9 -420 9 l-420
0 0 1550 c0 853 -3 1550 -7 1550 -5 0 -84 -41 -178 -91z"/>
<path d="M63235 21699 c-258 -22 -881 -65 -1185 -80 -124 -7 -227 -13 -229
-15 -8 -7 43 -137 75 -190 74 -124 176 -202 330 -253 135 -45 225 -56 454 -56
222 0 334 13 470 52 162 46 268 127 305 231 31 86 32 334 2 331 -7 -1 -106
-10 -222 -20z"/>
<path d="M42957 19463 c-27 -8 -47 -16 -45 -18 6 -6 98 18 98 27 0 4 -1 8 -2
7 -2 -1 -25 -8 -51 -16z"/>
<path d="M18434 18069 c-380 -36 -639 -226 -719 -524 -22 -86 -30 -255 -16
-353 22 -150 68 -247 162 -341 122 -122 259 -173 657 -241 184 -32 283 -58
331 -88 81 -50 111 -104 111 -199 0 -86 -22 -136 -84 -190 -81 -71 -199 -103
-387 -103 -230 0 -445 64 -632 187 -38 25 -72 42 -76 37 -14 -15 -201 -353
-201 -363 0 -16 149 -112 243 -156 111 -53 217 -88 351 -117 139 -30 486 -33
616 -4 279 60 459 184 555 379 61 126 80 224 72 382 -10 200 -53 309 -167 423
-117 117 -263 176 -621 251 -286 60 -348 83 -416 153 -44 45 -63 96 -63 168 0
156 123 244 371 265 188 15 442 -57 615 -175 l40 -28 98 195 c111 223 113 192
-19 267 -161 90 -363 155 -550 176 -100 11 -152 11 -271 -1z"/>
<path d="M20960 18069 c-319 -31 -555 -171 -665 -394 -58 -117 -70 -179 -70
-355 1 -216 29 -309 129 -432 102 -125 272 -202 558 -253 355 -63 394 -73 472
-119 69 -40 100 -93 104 -178 3 -48 -1 -82 -12 -112 -100 -262 -731 -263
-1101 -1 l-60 42 -103 -184 c-57 -101 -102 -190 -99 -197 7 -18 131 -98 225
-145 188 -95 381 -140 627 -148 462 -15 773 122 910 402 56 112 69 181 69 340
0 152 -12 221 -60 322 -35 72 -145 188 -224 235 -87 51 -270 108 -503 157
-254 54 -311 72 -379 121 -70 50 -99 104 -100 187 -1 82 16 125 68 173 81 74
184 104 364 104 181 -1 345 -49 518 -153 l79 -47 97 194 c75 151 94 197 84
204 -189 124 -432 213 -651 237 -107 12 -152 12 -277 0z"/>
<path d="M28942 18069 c-113 -13 -188 -36 -301 -90 -91 -44 -116 -63 -196
-142 -133 -133 -198 -257 -242 -459 -16 -73 -18 -139 -18 -563 0 -427 2 -489
18 -565 58 -270 211 -464 450 -575 110 -51 221 -75 373 -82 301 -13 512 62
694 246 95 96 154 191 195 313 44 132 55 245 55 551 l0 277 -425 0 -425 0 0
-225 0 -225 185 0 185 0 0 -58 c0 -116 -42 -225 -116 -299 -110 -109 -310
-139 -488 -73 -77 29 -148 96 -188 178 l-33 67 -3 436 c-3 479 1 521 55 621
37 69 120 142 191 168 204 77 453 -8 529 -181 l17 -39 248 0 248 0 -6 28 c-88
379 -380 646 -759 691 -101 12 -137 12 -243 0z"/>
<path d="M38251 18069 c-409 -51 -661 -292 -726 -694 -18 -107 -21 -944 -5
-1060 38 -264 150 -460 333 -582 268 -178 705 -193 973 -32 76 46 185 148 239
223 82 116 169 327 191 468 l7 38 -239 -2 -238 -3 -11 -46 c-33 -130 -121
-246 -224 -296 -51 -26 -66 -28 -171 -28 -103 0 -121 3 -171 26 -105 50 -166
124 -206 254 -16 54 -18 101 -18 490 0 460 3 489 52 590 50 102 135 166 254
191 228 48 421 -84 488 -333 l12 -43 236 0 235 0 -7 47 c-19 128 -95 326 -166
430 -158 235 -374 354 -664 367 -55 3 -133 1 -174 -5z"/>
<path d="M12690 16831 l0 -1221 230 0 230 0 0 474 0 474 343 4 c387 5 413 9
572 91 104 53 224 171 277 272 65 125 83 208 83 380 -1 174 -14 234 -78 365
-79 163 -239 291 -437 351 -74 23 -86 23 -647 27 l-573 3 0 -1220z m1076 764
c112 -33 175 -125 182 -265 2 -47 -1 -104 -7 -127 -18 -67 -69 -133 -131 -167
l-55 -31 -302 -3 -303 -3 0 305 0 306 283 0 c220 0 294 -3 333 -15z"/>
<path d="M15842 18023 c-11 -29 -905 -2365 -917 -2395 -7 -17 9 -18 241 -18
l249 0 49 143 c27 78 58 166 68 195 l19 52 448 0 448 0 68 -195 67 -195 248 0
248 0 -64 168 c-35 92 -245 641 -467 1220 l-402 1052 -146 0 -147 0 -10 -27z
m304 -1166 l142 -402 -286 -3 c-157 -1 -286 -1 -288 1 -2 2 61 186 139 409 78
224 144 404 147 401 3 -2 69 -185 146 -406z"/>
<path d="M22820 16830 l0 -1220 815 0 815 0 0 225 0 225 -585 0 -585 0 0 270
0 270 490 0 490 0 0 225 0 225 -490 0 -490 0 0 280 0 280 585 0 585 0 0 220 0
220 -815 0 -815 0 0 -1220z"/>
<path d="M25350 16830 l0 -1220 220 0 220 0 2 875 3 875 430 -875 429 -875
283 0 283 0 0 1220 0 1220 -220 0 -220 0 0 -887 c0 -487 -3 -883 -7 -879 -4 3
-199 401 -433 884 l-426 877 -282 3 -282 2 0 -1220z"/>
<path d="M30900 16830 l0 -1220 820 0 820 0 0 225 0 225 -590 0 -590 0 0 270
0 270 495 0 495 0 0 225 0 225 -495 0 -495 0 0 280 0 280 590 0 590 0 0 220 0
220 -820 0 -820 0 0 -1220z"/>
<path d="M33440 16830 l0 -1220 230 0 230 0 0 490 0 490 138 0 138 0 275 -490
274 -490 278 0 278 0 -32 58 c-19 31 -149 257 -291 502 -248 427 -257 445
-236 454 13 4 57 24 98 44 104 49 222 166 273 272 123 252 111 591 -29 817
-86 138 -216 232 -378 273 -75 19 -112 20 -663 20 l-583 0 0 -1220z m1104 768
c57 -17 119 -82 141 -147 22 -67 22 -183 1 -248 -21 -63 -69 -121 -120 -144
-37 -17 -71 -19 -353 -19 l-313 0 0 285 0 285 301 0 c210 0 314 -4 343 -12z"/>
<path d="M40747 18013 c-11 -28 -879 -2296 -914 -2391 -4 -10 46 -12 243 -10
l248 3 67 190 66 190 449 3 449 2 69 -195 68 -195 244 0 c134 0 244 3 244 8 0
4 -208 553 -462 1219 l-463 1213 -146 0 -147 0 -15 -37z m308 -1156 l141 -402
-285 -3 c-156 -1 -286 -1 -288 1 -2 3 60 187 139 410 78 224 144 404 147 401
3 -2 68 -186 146 -407z"/>
<path d="M42770 16830 l0 -1220 230 0 230 0 0 490 0 491 141 -3 141 -3 271
-485 272 -485 278 -3 c152 -1 277 0 277 2 0 2 -130 228 -289 502 -274 472
-288 499 -268 508 192 76 296 165 372 318 65 133 89 252 82 418 -7 151 -25
228 -79 340 -56 116 -169 231 -280 284 -135 65 -147 66 -795 66 l-583 0 0
-1220z m1103 769 c52 -14 110 -69 135 -127 54 -126 29 -294 -55 -374 -58 -56
-75 -58 -413 -58 l-310 0 0 285 0 285 303 0 c182 0 317 -4 340 -11z"/>
<path d="M45490 16830 l0 -1220 815 0 815 0 0 225 0 225 -585 0 -585 0 0 270
0 270 495 0 495 0 0 225 0 225 -495 0 -495 0 0 280 0 280 585 0 585 0 0 220 0
220 -815 0 -815 0 0 -1220z"/>
<path d="M49390 17228 c0 -680 3 -840 15 -923 55 -365 250 -593 584 -683 88
-24 113 -26 291 -26 178 0 203 2 291 26 327 89 523 309 583 657 14 82 16 207
16 933 l0 838 -230 0 -229 0 -3 -852 c-3 -950 2 -884 -73 -994 -64 -94 -168
-147 -308 -160 -243 -21 -425 107 -467 326 -6 33 -10 362 -10 866 l0 814 -230
0 -230 0 0 -822z"/>
<path d="M52120 16830 l0 -1220 220 0 220 0 0 877 c0 482 4 873 8 868 5 -6
199 -400 433 -877 l424 -867 283 -1 282 0 0 1220 0 1220 -220 0 -220 0 -2
-886 -3 -886 -430 886 -430 886 -282 0 -283 0 0 -1220z"/>
<path d="M55010 16830 l0 -1220 815 0 815 0 0 225 0 225 -585 0 -585 0 0 995
0 995 -230 0 -230 0 0 -1220z"/>
<path d="M57420 16830 l0 -1220 240 0 240 0 0 1220 0 1220 -240 0 -240 0 0
-1220z"/>
<path d="M58880 16830 l0 -1220 210 0 210 0 1 843 c0 536 4 835 10 822 9 -19
439 -1382 439 -1391 0 -2 91 -4 203 -4 l203 0 218 713 c120 391 223 716 227
722 5 5 9 -368 9 -848 l0 -857 205 0 205 0 0 1220 0 1220 -302 -2 -301 -3
-122 -430 c-67 -236 -170 -603 -230 -814 -78 -275 -111 -379 -117 -365 -4 10
-102 354 -218 764 -116 410 -217 769 -225 798 l-16 52 -304 0 -305 0 0 -1220z"/>
<path d="M62010 16830 l0 -1220 235 0 235 0 0 1220 0 1220 -235 0 -235 0 0
-1220z"/>
<path d="M63270 17830 l0 -220 330 0 330 0 0 -1000 0 -1000 230 0 230 0 0
1000 0 1000 330 0 330 0 0 220 0 220 -890 0 -890 0 0 -220z"/>
<path d="M65800 16830 l0 -1220 820 0 820 0 0 225 0 225 -590 0 -590 0 0 270
0 270 495 0 495 0 0 225 0 225 -495 0 -495 0 0 280 0 280 590 0 590 0 0 220 0
220 -820 0 -820 0 0 -1220z"/>
<path d="M68340 16829 l0 -1221 493 5 c460 4 498 6 591 26 203 45 349 123 467
249 79 84 123 157 160 264 45 134 49 181 49 688 0 425 -2 485 -19 565 -61 293
-243 494 -534 589 -150 49 -244 56 -746 56 l-461 0 0 -1221z m1012 753 c124
-41 214 -124 254 -236 16 -46 19 -95 22 -478 2 -271 -1 -448 -7 -484 -30 -160
-132 -266 -298 -309 -43 -11 -116 -15 -290 -15 l-233 0 0 776 0 776 243 -4
c214 -4 250 -7 309 -26z"/>
</g>
</svg>
