<svg id="Layer_1"  data-name="Layer 1" xmlns="http://www.w3.org/2000/svg" xmlns:xlink="http://www.w3.org/1999/xlink" viewBox="0 0 1024 1024"><defs><style>.cls-1{fill:url(#linear-gradient);}.cls-2{fill:url(#linear-gradient-2);}.cls-3{fill:url(#linear-gradient-3);}.cls-4{fill:url(#linear-gradient-4);}.cls-5{fill:url(#linear-gradient-5);}.cls-6{fill:url(#linear-gradient-6);}.cls-7{fill:url(#linear-gradient-7);}.cls-8{fill:url(#linear-gradient-8);}.cls-9{fill:url(#linear-gradient-9);}.cls-10{fill:url(#linear-gradient-10);}.cls-11{fill:url(#linear-gradient-11);}.cls-12{fill:url(#linear-gradient-12);}</style><linearGradient id="linear-gradient" x1="495" y1="313.51" x2="388.24" y2="503.83" gradientTransform="matrix(1, -0.03, 0.03, 1, -9.62, 12.1)" gradientUnits="userSpaceOnUse"><stop offset="0" stop-color="#4934bd"/><stop offset="1" stop-color="#8d3df7"/></linearGradient><linearGradient id="linear-gradient-2" x1="616.26" y1="372.98" x2="509.5" y2="563.29" gradientTransform="translate(-20.43 25.52) rotate(-2.54)" xlink:href="#linear-gradient"/><linearGradient id="linear-gradient-3" x1="527.97" y1="312.55" x2="495.55" y2="528.71" gradientTransform="translate(-31.14 41.53) rotate(-4.5)" xlink:href="#linear-gradient"/><linearGradient id="linear-gradient-4" x1="199.45" y1="728.37" x2="201.51" y2="559.36" gradientUnits="userSpaceOnUse"><stop offset="0" stop-color="#8d3df7"/><stop offset="1" stop-color="#4934bd"/></linearGradient><linearGradient id="linear-gradient-5" x1="294.44" y1="729.52" x2="296.5" y2="560.52" xlink:href="#linear-gradient-4"/><linearGradient id="linear-gradient-6" x1="382.49" y1="730.6" x2="384.55" y2="561.6" xlink:href="#linear-gradient-4"/><linearGradient id="linear-gradient-7" x1="472.97" y1="731.7" x2="475.03" y2="562.7" xlink:href="#linear-gradient-4"/><linearGradient id="linear-gradient-8" x1="561.29" y1="732.78" x2="563.35" y2="563.78" xlink:href="#linear-gradient-4"/><linearGradient id="linear-gradient-9" x1="644.16" y1="733.79" x2="646.22" y2="564.79" xlink:href="#linear-gradient-4"/><linearGradient id="linear-gradient-10" x1="709.6" y1="734.59" x2="711.66" y2="565.58" xlink:href="#linear-gradient-4"/><linearGradient id="linear-gradient-11" x1="779.74" y1="735.44" x2="781.8" y2="566.44" xlink:href="#linear-gradient-4"/><linearGradient id="linear-gradient-12" x1="849.85" y1="736.3" x2="851.91" y2="567.29" xlink:href="#linear-gradient-4"/></defs><path class="cls-1" d="M461.34,436.32a12.05,12.05,0,0,1-7.71-3.89l-29.81-33,0,0-.32-.36a26.27,26.27,0,0,1,3-38.54l34.69-27.81a12.62,12.62,0,0,1,17.05,1.4l3.46,3.83A11,11,0,0,1,480.44,354L446.15,381.5l29.81,33a10.66,10.66,0,0,1-1.24,15.63l-4.52,3.63A12,12,0,0,1,461.34,436.32Z"/><path class="cls-2" d="M555.25,510.81a12.33,12.33,0,0,1-9.71-3.94l-3.44-3.78A11,11,0,0,1,543.43,487l34.4-27.94-29.71-32.61a10.59,10.59,0,0,1-2.79-8.06,10.84,10.84,0,0,1,4.08-7.58l4.54-3.69a12.1,12.1,0,0,1,7.13-2.69,12,12,0,0,1,9.44,3.83l29.75,32.65,0,0,.29.33c10.39,11.4,9,28.7-3.18,38.56L562.6,508A12.43,12.43,0,0,1,555.25,510.81Z"/><rect class="cls-3" x="497.07" y="323.26" width="30.58" height="186.79" rx="9.31" transform="matrix(1, 0.08, -0.08, 1, 34.31, -38.95)"/><path class="cls-4" d="M229.29,645.34a5.13,5.13,0,0,1,6.49-.59l7.82,5.16a5.23,5.23,0,0,1,.74,8.12c-9.15,9-21.84,14.31-36.6,14.31-30.69,0-52.53-23.17-52.53-53.42s21.84-53.56,52.53-53.56c14.76,0,27.45,5.46,36.6,14.46a5.23,5.23,0,0,1-.74,8.12l-7.82,5.16a5.33,5.33,0,0,1-6.49-.59c-5.31-4.87-12.54-8-21.55-8-21.39,0-32.46,17.27-32.46,34.38s11.07,34.39,32.46,34.39C216.75,653.31,224,650.21,229.29,645.34Z"/><path class="cls-5" d="M335.08,633.24c0,21.84-17,39.25-39.54,39.25s-39.4-17.41-39.4-39.25,17-39.25,39.4-39.25S335.08,611.25,335.08,633.24Zm-19.18,0c0-11.66-7.82-21.25-20.36-21.25s-20.22,9.59-20.22,21.25,7.82,21.25,20.22,21.25S315.9,644.9,315.9,633.24Z"/><path class="cls-6" d="M409.45,567.28h8.26a5.29,5.29,0,0,1,5.32,5.31v92.67a5.29,5.29,0,0,1-5.32,5.31h-8.26a5.26,5.26,0,0,1-5.16-5.31v-3.54c-4.87,6.19-12.25,10.62-23.91,10.62-23.17,0-36.45-19.62-36.45-39.1S357.21,594,380.38,594c11.66,0,19,4.42,23.91,10.62v-32A5.26,5.26,0,0,1,409.45,567.28Zm-6.05,66c0-11.66-7.23-21.25-20.07-21.25s-20.21,9.74-20.21,21.25,7.37,21.25,20.21,21.25S403.4,644.75,403.4,633.24Z"/><path class="cls-7" d="M512,635.3a5.23,5.23,0,0,1-5.16,5.17H456.22c2.66,9.88,10.92,15.2,21.25,15.2a22.72,22.72,0,0,0,14.76-5.32,3.79,3.79,0,0,1,4.57-.44l8.41,5a4,4,0,0,1,.74,6.2c-6.49,6.49-16.52,11.21-28.48,11.21-24.79,0-41.17-16.38-41.17-39.1,0-23.47,17.56-39.25,38.22-39.25C495.77,594,513,608.89,512,635.3ZM493.41,626c-1.92-9.89-8.56-15.35-18.59-15.35-9.15,0-16.38,5.76-18.6,15.35Z"/><path class="cls-8" d="M597.29,641.8c0,19-14.91,28.77-33.79,28.77H530.89a2.52,2.52,0,0,1-2.51-2.66v-98a2.52,2.52,0,0,1,2.51-2.65h30.39c18.89,0,30.7,11.21,30.7,26.71,0,10-5.61,17.85-15.35,21.69v.44C588.88,619.37,597.29,627.93,597.29,641.8ZM536.2,575.1v38.07h25.08c14.61,0,22.88-8,22.88-19.18s-8.27-18.89-22.88-18.89Zm53.12,66.7c0-14.61-11.21-21-25.82-21H536.2v41.91h27.3C578.11,662.75,589.32,656.55,589.32,641.8Z"/><path class="cls-9" d="M681.69,633.09a4,4,0,0,1-4,4h-60.5a30.56,30.56,0,0,0,30.39,27.45c9,0,16.68-3.1,22.58-9.3a2.71,2.71,0,0,1,3.25-.44l2.21,1.48a2.52,2.52,0,0,1,.59,4,38.19,38.19,0,0,1-28.63,12.1c-21.69,0-38.51-17.56-38.51-39.1S624.73,594,646,594C665.75,594,681.25,609.48,681.69,633.09Zm-64.48-3.84h56.22c-1.77-16.38-13.14-27.44-27.45-27.44C630.34,601.81,618.83,614.05,617.21,629.25Z"/><path class="cls-10" d="M728,663.34a2.78,2.78,0,0,1,2.81,2.66v2.65a2.49,2.49,0,0,1-2.51,2.51c-11.51.74-23.17-1.92-23.17-23V603.72H693.49a2.64,2.64,0,0,1-2.65-2.65v-2.66a2.64,2.64,0,0,1,2.65-2.65h11.66V582.62a2.63,2.63,0,0,1,2.66-2.51h2.65a2.63,2.63,0,0,1,2.66,2.51v13.14h14.75a2.64,2.64,0,0,1,2.66,2.65v2.66a2.64,2.64,0,0,1-2.66,2.65H713.12v44.42C713.12,658.62,715.77,663.78,728,663.34Z"/><path class="cls-11" d="M817.29,633.09a4,4,0,0,1-4,4h-60.5a30.56,30.56,0,0,0,30.39,27.45c9,0,16.68-3.1,22.58-9.3a2.71,2.71,0,0,1,3.25-.44l2.21,1.48a2.52,2.52,0,0,1,.59,4,38.19,38.19,0,0,1-28.63,12.1c-21.69,0-38.51-17.56-38.51-39.1S760.33,594,781.58,594C801.35,594,816.85,609.48,817.29,633.09Zm-64.48-3.84H809c-1.77-16.38-13.13-27.44-27.45-27.44C765.94,601.81,754.43,614.05,752.81,629.25Z"/><path class="cls-12" d="M866,594.13a2.57,2.57,0,0,1,2.81,2.51v4a2.49,2.49,0,0,1-2.51,2.5c-15,1-24,11.37-24,29.37v35.41a2.65,2.65,0,0,1-2.66,2.66h-2.66a2.64,2.64,0,0,1-2.65-2.66v-69.5a2.64,2.64,0,0,1,2.65-2.65h2.66a2.64,2.64,0,0,1,2.66,2.65v13.43C847,602.54,855.06,595.17,866,594.13Z"/></svg>
